<svg version="1" xmlns="http://www.w3.org/2000/svg" width="800" height="800" viewBox="0 0 600.000000 600.000000"><path d="M0 300v300h600V0H0v300zm401.7-26.5l20.3 26V366.8l31.3 13.9 31.2 13.9v49.7L437.8 465 391 485.8v-50.7l7.6-36.1c4.2-19.9 7.5-36.3 7.3-36.5-.4-.3-50.4-22.6-58.4-26.1l-3.1-1.3-8.9 11.6c-8 10.2-13.9 16.3-15.8 16.3-.4 0-.7-.9-.7-2 0-2.5.2-2.5-6.5.4l-5.5 2.5v6c0 5.5.2 6 2.4 6.3 2.3.3 2 .8-4.4 8.8-3.7 4.8-7.1 9.7-7.5 11-.9 3-12.9 16-16.4 17.9-5 2.6-7.9 6.2-8.6 10.5-.4 2.2-1.7 5.1-2.9 6.4l-2.1 2.4-.6-2.4c-.4-1.3-.7-15.8-.8-32.3l-.1-30-22.9-29.5c-12.6-16.2-22.8-29.6-22.6-29.9.3-.2 35.2-15.8 77.7-34.7l77.3-34.3 3 3.7c1.6 2 12.1 15.3 23.2 29.7zm-184.7 26c2.4 1.2 3 2.2 3 4.8 0 2.8-.5 3.6-3.5 5-4.6 2.2-4.5 2.2-4.5-1.3 0-2.4-.7-3.3-3.7-4.9l-3.8-1.9 3.5-1.6c4.4-1.9 5.4-1.9 9-.1z"/><path d="M406.8 319.7l-5.8 2.6v6.3c0 3.5.2 6.4.5 6.4.2 0 2.9-1.1 6-2.4l5.5-2.5v-6.5c0-3.7-.1-6.6-.2-6.6-.2 0-2.9 1.2-6 2.7zM375 333.8c-5.3 2.6-5.5 2.8-5.5 6.7 0 3.3.4 4.2 2.7 5.3 2.1 1 3.2 1 5.5 0 1.5-.7 3.1-1.7 3.5-2.3 1-1.3 1-12.5.1-12.4-.5 0-3.3 1.2-6.3 2.7zM408.3 358.2c-2.7 1.3-2.9 2.4-.5 3.1.9.2 2.5.8 3.5 1.2 1.4.6 1.7.2 1.7-2.4 0-3.3-1-3.7-4.7-1.9zM280.8 375.6L276 378v6c0 3.6.4 6 1.1 6 .6 0 3.3-1 6-2.1l4.9-2.1v-6.4c0-7.3-.3-7.5-7.2-3.8zM468.3 414.5l-5.3 2.4V430l3.3-1.4c9.2-3.9 8.7-3.3 8.7-10.3 0-3.4-.3-6.3-.7-6.3-.5 0-3.2 1.1-6 2.5zM437.8 428.8c-3.7 1.4-3.8 1.6-3.8 6.3v4.9l3.7-1.5c4.7-2 4.5-1.6 4.1-6.7l-.3-4.4-3.7 1.4zM405.8 442.2l-4.8 2.1v6.3c0 3.7.4 6.4 1 6.4s3.3-1.1 6-2.5l5-2.5v-6c0-6.8-.2-6.9-7.2-3.8zM437.8 441.7c-3.8 1.5-3.8 1.6-3.8 7.3v5.8l4-1.5 4-1.6v-5.9c0-3.2-.1-5.8-.2-5.7-.2 0-2 .7-4 1.6z"/></svg>